<svg xmlns="http://www.w3.org/2000/svg" viewBox="0 0 128 128" role="img" aria-label="PixelProof icon">
  <defs>
    <linearGradient id="bg" x1="0" y1="0" x2="1" y2="1">
      <stop offset="0%" stop-color="#101114"/>
      <stop offset="100%" stop-color="#0a0b0d"/>
    </linearGradient>
  </defs>
  <rect width="128" height="128" rx="28" fill="url(#bg)"/>
  <rect x="16" y="16" width="96" height="96" rx="22" fill="none" stroke="#ff4444" stroke-width="6"/>
  <path d="M43 54c0-11 8-19 21-19 9 0 17 4 21 11 2 4 4 9 4 14 0 16-14 23-21 31-5 6-6 9-6 14" fill="none" stroke="#f0f0f0" stroke-width="10" stroke-linecap="round" stroke-linejoin="round"/>
  <circle cx="72" cy="83" r="8" fill="#ff4444"/>
  <path d="M54 86l10 10 20-22" fill="none" stroke="#22c55e" stroke-width="8" stroke-linecap="round" stroke-linejoin="round"/>
  <path d="M26 36h20M82 36h20M26 92h20M82 92h20" stroke="#2b2d33" stroke-width="5" stroke-linecap="round" opacity="0.85"/>
</svg>