<svg xmlns="http://www.w3.org/2000/svg" width="1600" height="900" viewBox="0 0 1600 900" role="img" aria-label="PixelProof overlay preview">
  <defs>
    <linearGradient id="bg" x1="0" y1="0" x2="1" y2="1">
      <stop offset="0%" stop-color="#050816"/>
      <stop offset="100%" stop-color="#1f2937"/>
    </linearGradient>
    <linearGradient id="panel" x1="0" y1="0" x2="0" y2="1">
      <stop offset="0%" stop-color="#10192d"/>
      <stop offset="100%" stop-color="#0b1220"/>
    </linearGradient>
  </defs>
  <rect width="1600" height="900" rx="40" fill="url(#bg)"/>
  <rect x="120" y="120" width="920" height="660" rx="34" fill="#1f2937" stroke="#334155"/>
  <rect x="160" y="160" width="840" height="590" rx="28" fill="#3f3f46"/>
  <circle cx="300" cy="320" r="120" fill="#94a3b8"/>
  <circle cx="300" cy="320" r="95" fill="#cbd5e1"/>
  <rect x="470" y="210" width="430" height="240" rx="28" fill="rgba(255,255,255,0.08)"/>
  <rect x="490" y="240" width="220" height="34" rx="17" fill="#22c55e"/>
  <rect x="490" y="290" width="320" height="20" rx="10" fill="#94a3b8"/>
  <rect x="490" y="324" width="280" height="20" rx="10" fill="#94a3b8"/>
  <rect x="490" y="358" width="250" height="20" rx="10" fill="#94a3b8"/>
  <rect x="470" y="485" width="430" height="120" rx="28" fill="rgba(2,132,199,0.18)"/>
  <text x="500" y="535" fill="#bae6fd" font-family="Inter,Segoe UI,Arial,sans-serif" font-size="26" font-weight="700">Overlay verdict: Likely Genuine</text>
  <text x="500" y="575" fill="#e2e8f0" font-family="Inter,Segoe UI,Arial,sans-serif" font-size="20">Scan from page, popup, or context flow</text>

  <rect x="1100" y="150" width="380" height="600" rx="34" fill="url(#panel)" stroke="#1e293b"/>
  <text x="1140" y="220" fill="#f8fafc" font-family="Inter,Segoe UI,Arial,sans-serif" font-size="30" font-weight="700">Image Overlay</text>
  <rect x="1140" y="260" width="300" height="180" rx="24" fill="#111827"/>
  <rect x="1170" y="292" width="120" height="32" rx="16" fill="#7c3aed"/>
  <text x="1195" y="315" fill="#fff" font-family="Inter,Segoe UI,Arial,sans-serif" font-size="18">Scan image</text>
  <rect x="1170" y="340" width="240" height="16" rx="8" fill="#334155"/>
  <rect x="1170" y="340" width="180" height="16" rx="8" fill="#06b6d4"/>
  <text x="1140" y="490" fill="#cbd5e1" font-family="Inter,Segoe UI,Arial,sans-serif" font-size="22">Fast per-image scan</text>
  <text x="1140" y="530" fill="#cbd5e1" font-family="Inter,Segoe UI,Arial,sans-serif" font-size="22">Detected artifact hints</text>
  <text x="1140" y="570" fill="#cbd5e1" font-family="Inter,Segoe UI,Arial,sans-serif" font-size="22">Fact-check context</text>
  <text x="1140" y="610" fill="#cbd5e1" font-family="Inter,Segoe UI,Arial,sans-serif" font-size="22">Cached results</text>
  <rect x="1140" y="650" width="250" height="48" rx="24" fill="rgba(34,197,94,0.16)"/>
  <text x="1170" y="682" fill="#86efac" font-family="Inter,Segoe UI,Arial,sans-serif" font-size="20">Ready for judges</text>
</svg>