<svg xmlns="http://www.w3.org/2000/svg" width="1600" height="900" viewBox="0 0 1600 900" role="img" aria-label="PixelProof settings preview">
  <defs>
    <linearGradient id="bg" x1="0" y1="0" x2="1" y2="1">
      <stop offset="0%" stop-color="#06111e"/>
      <stop offset="100%" stop-color="#0f172a"/>
    </linearGradient>
    <linearGradient id="card" x1="0" y1="0" x2="0" y2="1">
      <stop offset="0%" stop-color="#172554"/>
      <stop offset="100%" stop-color="#0b1120"/>
    </linearGradient>
  </defs>
  <rect width="1600" height="900" rx="40" fill="url(#bg)"/>
  <rect x="210" y="90" width="1180" height="720" rx="36" fill="#111827" stroke="#1f2937"/>
  <rect x="260" y="140" width="1080" height="620" rx="28" fill="url(#card)"/>
  <text x="320" y="215" fill="#f8fafc" font-family="Inter,Segoe UI,Arial,sans-serif" font-size="40" font-weight="800">PixelProof Settings</text>
  <text x="320" y="270" fill="#cbd5e1" font-family="Inter,Segoe UI,Arial,sans-serif" font-size="24">Store API keys locally for demo-safe operation.</text>

  <rect x="320" y="330" width="960" height="94" rx="24" fill="rgba(255,255,255,0.06)"/>
  <text x="360" y="383" fill="#e2e8f0" font-family="Inter,Segoe UI,Arial,sans-serif" font-size="24">Reality Defender API Key</text>
  <rect x="820" y="353" width="410" height="48" rx="18" fill="#0f172a" stroke="#334155"/>
  <rect x="845" y="368" width="190" height="18" rx="9" fill="#475569"/>

  <rect x="320" y="450" width="960" height="94" rx="24" fill="rgba(255,255,255,0.06)"/>
  <text x="360" y="503" fill="#e2e8f0" font-family="Inter,Segoe UI,Arial,sans-serif" font-size="24">Gemini API Key</text>
  <rect x="820" y="473" width="410" height="48" rx="18" fill="#0f172a" stroke="#334155"/>
  <rect x="845" y="488" width="170" height="18" rx="9" fill="#475569"/>

  <rect x="320" y="570" width="960" height="94" rx="24" fill="rgba(255,255,255,0.06)"/>
  <text x="360" y="623" fill="#e2e8f0" font-family="Inter,Segoe UI,Arial,sans-serif" font-size="24">Fact Check API Key</text>
  <rect x="820" y="593" width="410" height="48" rx="18" fill="#0f172a" stroke="#334155"/>
  <rect x="845" y="608" width="180" height="18" rx="9" fill="#475569"/>

  <rect x="320" y="690" width="260" height="58" rx="29" fill="#7c3aed"/>
  <text x="400" y="729" fill="#fff" font-family="Inter,Segoe UI,Arial,sans-serif" font-size="22" font-weight="700">Save keys</text>
  <rect x="610" y="690" width="260" height="58" rx="29" fill="rgba(34,197,94,0.16)"/>
  <text x="675" y="729" fill="#86efac" font-family="Inter,Segoe UI,Arial,sans-serif" font-size="22" font-weight="700">Demo ready</text>
</svg>